<?xml version="1.0" encoding="iso-8859-1"?>
<!-- Uploaded to: SVG Repo, www.svgrepo.com, Generator: SVG Repo Mixer Tools -->
<svg version="1.1" id="Layer_1" xmlns="http://www.w3.org/2000/svg"
	xmlns:xlink="http://www.w3.org/1999/xlink"
	viewBox="0 0 512 512" xml:space="preserve">
<g>
	<rect x="140.676" y="111.727" style="fill:#747D8C;" width="40.262" height="349.948"/>
	<rect x="102.93" y="461.675" style="fill:#747D8C;" width="115.754" height="40.262"/>
	<rect x="331.065" y="111.727" style="fill:#747D8C;" width="40.262" height="349.948"/>
	<rect x="293.319" y="461.675" style="fill:#747D8C;" width="115.754" height="40.262"/>
	<rect x="180.938" y="156.348" style="fill:#747D8C;" width="150.127" height="40.262"/>
	<rect x="180.938" y="257.003" style="fill:#747D8C;" width="150.127" height="40.262"/>
	<rect x="180.938" y="357.658" style="fill:#747D8C;" width="150.127" height="40.262"/>
</g>
<g>
	<rect x="371.327" y="10.066" style="fill:#16a34a;" width="40.262" height="331.83"/>
	<rect x="100.414" y="10.066" style="fill:#16a34a;" width="40.262" height="331.83"/>
	<rect x="140.676" y="31.203" style="fill:#16a34a;" width="230.651" height="40.262"/>
</g>
<path style="fill:#231F20;" d="M411.589,351.958c5.559,0,10.066-4.506,10.066-10.066V10.066C421.655,4.506,417.149,0,411.589,0
	h-40.262c-5.559,0-10.066,4.506-10.066,10.066v11.072H150.738V10.066C150.738,4.506,146.232,0,140.673,0h-40.262
	c-5.559,0-10.066,4.506-10.066,10.066v331.827c0,5.559,4.506,10.066,10.066,10.066h30.197v99.649h-27.68
	c-5.559,0-10.066,4.506-10.066,10.066v40.262c0,5.559,4.506,10.066,10.066,10.066h115.754c5.559,0,10.066-4.506,10.066-10.066
	v-40.262c0-5.559-4.506-10.066-10.066-10.066H191V407.99H321v43.617h-27.68c-5.559,0-10.066,4.506-10.066,10.066v40.262
	c0,5.559,4.506,10.066,10.066,10.066h115.754c5.559,0,10.066-4.506,10.066-10.066v-40.262c0-5.559-4.506-10.066-10.066-10.066
	h-27.68v-99.649H411.589z M381.393,20.131h20.131v311.696h-20.131V20.131z M191,267.072H321v20.131H191V267.072z M321,246.941H191
	v-40.262H321V246.941z M321,186.547H191v-20.131H321V186.547z M191,307.334H321v40.262H191V307.334z M331.065,101.662
	c-5.559,0-10.066,4.506-10.066,10.066v34.558H191v-34.558c0-5.559-4.506-10.066-10.066-10.066h-30.197V81.531h210.523v20.131
	H331.065z M361.262,41.269V61.4H150.738V41.269H361.262z M110.476,331.827V20.131h20.131v311.696H110.476z M208.615,491.869h-95.622
	v-20.131h95.622V491.869z M150.738,451.607V121.793h20.131v329.814H150.738z M191,387.858v-20.131H321v20.131H191z M399.007,491.869
	h-95.622v-20.131h95.622V491.869z M341.131,451.607V121.793h20.131v329.814H341.131z"/>
</svg>